# xmcd CD database file
#
# Track frame offsets:
#	150
#	13488
#	25870
#	48320
#	61539
#	68992
#	81435
#	93245
#	109982
#	133696
#	156256
#	175088
#	195865
#	210002
#
# Disc length: 2998 seconds
#
# Revision: 1
# Processed by: cddbd v1.5.2PL0 Copyright (c) Steve Scherf et al.
# Submitted via: CDex 1.51
#
DISCID=b10bb40e
DTITLE=Johnny Cash - Live From Austin, TX
DYEAR=2007
DGENRE=Country
TTITLE0=Ring of Fire
TTITLE1=Folsom Prison Blues
TTITLE2=Sunday Mornin' Comin' Down
TTITLE3=I Walk the Line
TTITLE4=The Wall
TTITLE5=Long Black Veil
TTITLE6=Big River
TTITLE7=I'll Go Somewhere and Sing My Songs Again
TTITLE8=Let Him Roll
TTITLE9=Ballad of Barbara
TTITLE10=Sam Stone
TTITLE11=(Ghost) Riders in the Sky
TTITLE12=Where Did We Go Right
TTITLE13=I Walk the Line (outro)
EXTD=YEAR: 2007
EXTT0=
EXTT1=
EXTT2=
EXTT3=
EXTT4=
EXTT5=
EXTT6=
EXTT7=
EXTT8=
EXTT9=
EXTT10=
EXTT11=
EXTT12=
EXTT13=
PLAYORDER=
